<mxfile host="app.diagrams.net" modified="2024-07-09T11:38:15.595Z" agent="Mozilla/5.0 (Windows NT 10.0; Win64; x64) AppleWebKit/537.36 (KHTML, like Gecko) Chrome/124.0.0.0 YaBrowser/24.6.0.0 Safari/537.36" etag="s4w342ycAvyyVxDlw8lW" version="24.6.4" type="device">
  <diagram name="Страница — 1" id="ey12yU7m-k0KGq1fMk_B">
    <mxGraphModel dx="347" dy="3174" grid="1" gridSize="10" guides="1" tooltips="1" connect="1" arrows="1" fold="1" page="1" pageScale="1" pageWidth="827" pageHeight="1169" math="0" shadow="0">
      <root>
        <mxCell id="0" />
        <mxCell id="1" parent="0" />
        <mxCell id="csLIRg7EKENoaghVLYN3-34" value="" style="swimlane;startSize=0;" parent="1" vertex="1">
          <mxGeometry x="1890" y="-1980" width="200" height="500" as="geometry">
            <mxRectangle x="40" y="200" width="50" height="40" as="alternateBounds" />
          </mxGeometry>
        </mxCell>
        <mxCell id="csLIRg7EKENoaghVLYN3-35" value="User phiz.face" style="text;html=1;align=center;verticalAlign=middle;whiteSpace=wrap;rounded=0;" parent="csLIRg7EKENoaghVLYN3-34" vertex="1">
          <mxGeometry x="60" width="80" height="30" as="geometry" />
        </mxCell>
        <mxCell id="csLIRg7EKENoaghVLYN3-36" value="ID" style="text;html=1;align=center;verticalAlign=middle;whiteSpace=wrap;rounded=0;" parent="csLIRg7EKENoaghVLYN3-34" vertex="1">
          <mxGeometry y="60" width="200" height="40" as="geometry" />
        </mxCell>
        <mxCell id="csLIRg7EKENoaghVLYN3-39" value="ID_cardbank" style="text;html=1;align=center;verticalAlign=middle;whiteSpace=wrap;rounded=0;" parent="csLIRg7EKENoaghVLYN3-34" vertex="1">
          <mxGeometry y="220" width="200" height="40" as="geometry" />
        </mxCell>
        <mxCell id="csLIRg7EKENoaghVLYN3-40" value="ID_maps" style="text;html=1;align=center;verticalAlign=middle;whiteSpace=wrap;rounded=0;" parent="csLIRg7EKENoaghVLYN3-34" vertex="1">
          <mxGeometry y="380" width="200" height="40" as="geometry" />
        </mxCell>
        <mxCell id="csLIRg7EKENoaghVLYN3-41" value="LVL" style="text;html=1;align=center;verticalAlign=middle;whiteSpace=wrap;rounded=0;" parent="csLIRg7EKENoaghVLYN3-34" vertex="1">
          <mxGeometry y="140" width="200" height="40" as="geometry" />
        </mxCell>
        <mxCell id="csLIRg7EKENoaghVLYN3-74" value="ID_awards" style="text;html=1;align=center;verticalAlign=middle;whiteSpace=wrap;rounded=0;" parent="csLIRg7EKENoaghVLYN3-34" vertex="1">
          <mxGeometry y="340" width="200" height="40" as="geometry" />
        </mxCell>
        <mxCell id="csLIRg7EKENoaghVLYN3-75" value="ID_setting" style="text;html=1;align=center;verticalAlign=middle;whiteSpace=wrap;rounded=0;" parent="csLIRg7EKENoaghVLYN3-34" vertex="1">
          <mxGeometry y="180" width="200" height="40" as="geometry" />
        </mxCell>
        <mxCell id="csLIRg7EKENoaghVLYN3-93" value="ID_phandomat" style="text;html=1;align=center;verticalAlign=middle;whiteSpace=wrap;rounded=0;" parent="csLIRg7EKENoaghVLYN3-34" vertex="1">
          <mxGeometry y="300" width="200" height="40" as="geometry" />
        </mxCell>
        <mxCell id="h2uy1tZPQLhtZi0CYQHW-30" value="ID_history session" style="text;html=1;align=center;verticalAlign=middle;whiteSpace=wrap;rounded=0;" parent="csLIRg7EKENoaghVLYN3-34" vertex="1">
          <mxGeometry y="420" width="200" height="40" as="geometry" />
        </mxCell>
        <mxCell id="8iAgz6GP0BhCK0G63EhW-2" value="ID_Auth" style="text;html=1;align=center;verticalAlign=middle;whiteSpace=wrap;rounded=0;" parent="csLIRg7EKENoaghVLYN3-34" vertex="1">
          <mxGeometry y="460" width="200" height="40" as="geometry" />
        </mxCell>
        <mxCell id="csLIRg7EKENoaghVLYN3-58" value="" style="swimlane;startSize=0;" parent="1" vertex="1">
          <mxGeometry x="1460" y="-2080" width="200" height="240" as="geometry">
            <mxRectangle x="40" y="200" width="50" height="40" as="alternateBounds" />
          </mxGeometry>
        </mxCell>
        <mxCell id="csLIRg7EKENoaghVLYN3-59" value="Awards" style="text;html=1;align=center;verticalAlign=middle;whiteSpace=wrap;rounded=0;" parent="csLIRg7EKENoaghVLYN3-58" vertex="1">
          <mxGeometry x="60" width="80" height="30" as="geometry" />
        </mxCell>
        <mxCell id="csLIRg7EKENoaghVLYN3-60" value="ID" style="text;html=1;align=center;verticalAlign=middle;whiteSpace=wrap;rounded=0;" parent="csLIRg7EKENoaghVLYN3-58" vertex="1">
          <mxGeometry y="40" width="200" height="40" as="geometry" />
        </mxCell>
        <mxCell id="csLIRg7EKENoaghVLYN3-61" value="Nickname" style="text;html=1;align=center;verticalAlign=middle;whiteSpace=wrap;rounded=0;" parent="csLIRg7EKENoaghVLYN3-58" vertex="1">
          <mxGeometry y="80" width="200" height="40" as="geometry" />
        </mxCell>
        <mxCell id="h2uy1tZPQLhtZi0CYQHW-51" value="Imag" style="text;html=1;align=center;verticalAlign=middle;whiteSpace=wrap;rounded=0;" parent="csLIRg7EKENoaghVLYN3-58" vertex="1">
          <mxGeometry y="120" width="200" height="40" as="geometry" />
        </mxCell>
        <mxCell id="h2uy1tZPQLhtZi0CYQHW-52" value="Description&amp;nbsp;" style="text;html=1;align=center;verticalAlign=middle;whiteSpace=wrap;rounded=0;" parent="csLIRg7EKENoaghVLYN3-58" vertex="1">
          <mxGeometry y="160" width="200" height="40" as="geometry" />
        </mxCell>
        <mxCell id="h2uy1tZPQLhtZi0CYQHW-55" value="Count money" style="text;html=1;align=center;verticalAlign=middle;whiteSpace=wrap;rounded=0;" parent="csLIRg7EKENoaghVLYN3-58" vertex="1">
          <mxGeometry y="200" width="200" height="40" as="geometry" />
        </mxCell>
        <mxCell id="csLIRg7EKENoaghVLYN3-85" value="" style="swimlane;startSize=0;" parent="1" vertex="1">
          <mxGeometry x="1410" y="-1540" width="200" height="240" as="geometry">
            <mxRectangle x="40" y="200" width="50" height="40" as="alternateBounds" />
          </mxGeometry>
        </mxCell>
        <mxCell id="csLIRg7EKENoaghVLYN3-86" value="debit.card bank" style="text;html=1;align=center;verticalAlign=middle;whiteSpace=wrap;rounded=0;" parent="csLIRg7EKENoaghVLYN3-85" vertex="1">
          <mxGeometry x="60" width="80" height="30" as="geometry" />
        </mxCell>
        <mxCell id="csLIRg7EKENoaghVLYN3-87" value="ID" style="text;html=1;align=center;verticalAlign=middle;whiteSpace=wrap;rounded=0;" parent="csLIRg7EKENoaghVLYN3-85" vertex="1">
          <mxGeometry y="40" width="200" height="40" as="geometry" />
        </mxCell>
        <mxCell id="csLIRg7EKENoaghVLYN3-88" value="Full name User" style="text;html=1;align=center;verticalAlign=middle;whiteSpace=wrap;rounded=0;" parent="csLIRg7EKENoaghVLYN3-85" vertex="1">
          <mxGeometry y="80" width="200" height="40" as="geometry" />
        </mxCell>
        <mxCell id="h2uy1tZPQLhtZi0CYQHW-72" value="Num card" style="text;html=1;align=center;verticalAlign=middle;whiteSpace=wrap;rounded=0;" parent="csLIRg7EKENoaghVLYN3-85" vertex="1">
          <mxGeometry y="120" width="200" height="40" as="geometry" />
        </mxCell>
        <mxCell id="h2uy1tZPQLhtZi0CYQHW-74" value="Date" style="text;html=1;align=center;verticalAlign=middle;whiteSpace=wrap;rounded=0;" parent="csLIRg7EKENoaghVLYN3-85" vertex="1">
          <mxGeometry y="160" width="200" height="40" as="geometry" />
        </mxCell>
        <mxCell id="h2uy1tZPQLhtZi0CYQHW-75" value="CVV" style="text;html=1;align=center;verticalAlign=middle;whiteSpace=wrap;rounded=0;" parent="csLIRg7EKENoaghVLYN3-85" vertex="1">
          <mxGeometry y="200" width="200" height="40" as="geometry" />
        </mxCell>
        <mxCell id="csLIRg7EKENoaghVLYN3-95" value="" style="swimlane;startSize=0;" parent="1" vertex="1">
          <mxGeometry x="1117" y="-1074" width="200" height="200" as="geometry">
            <mxRectangle x="40" y="200" width="50" height="40" as="alternateBounds" />
          </mxGeometry>
        </mxCell>
        <mxCell id="csLIRg7EKENoaghVLYN3-96" value="Admin/Investor" style="text;html=1;align=center;verticalAlign=middle;whiteSpace=wrap;rounded=0;" parent="csLIRg7EKENoaghVLYN3-95" vertex="1">
          <mxGeometry x="60" width="80" height="30" as="geometry" />
        </mxCell>
        <mxCell id="csLIRg7EKENoaghVLYN3-97" value="ID" style="text;html=1;align=center;verticalAlign=middle;whiteSpace=wrap;rounded=0;" parent="csLIRg7EKENoaghVLYN3-95" vertex="1">
          <mxGeometry y="40" width="200" height="40" as="geometry" />
        </mxCell>
        <mxCell id="csLIRg7EKENoaghVLYN3-98" value="ID_Role" style="text;html=1;align=center;verticalAlign=middle;whiteSpace=wrap;rounded=0;" parent="csLIRg7EKENoaghVLYN3-95" vertex="1">
          <mxGeometry y="80" width="200" height="40" as="geometry" />
        </mxCell>
        <mxCell id="csLIRg7EKENoaghVLYN3-163" value="Login" style="text;html=1;align=center;verticalAlign=middle;whiteSpace=wrap;rounded=0;" parent="csLIRg7EKENoaghVLYN3-95" vertex="1">
          <mxGeometry y="120" width="200" height="40" as="geometry" />
        </mxCell>
        <mxCell id="csLIRg7EKENoaghVLYN3-164" value="Password" style="text;html=1;align=center;verticalAlign=middle;whiteSpace=wrap;rounded=0;" parent="csLIRg7EKENoaghVLYN3-95" vertex="1">
          <mxGeometry y="160" width="200" height="40" as="geometry" />
        </mxCell>
        <mxCell id="csLIRg7EKENoaghVLYN3-107" value="" style="swimlane;startSize=0;" parent="1" vertex="1">
          <mxGeometry x="1130" y="-794" width="200" height="400" as="geometry">
            <mxRectangle x="40" y="200" width="50" height="40" as="alternateBounds" />
          </mxGeometry>
        </mxCell>
        <mxCell id="csLIRg7EKENoaghVLYN3-108" value="Company" style="text;html=1;align=center;verticalAlign=middle;whiteSpace=wrap;rounded=0;" parent="csLIRg7EKENoaghVLYN3-107" vertex="1">
          <mxGeometry x="60" width="80" height="30" as="geometry" />
        </mxCell>
        <mxCell id="csLIRg7EKENoaghVLYN3-109" value="ID" style="text;html=1;align=center;verticalAlign=middle;whiteSpace=wrap;rounded=0;" parent="csLIRg7EKENoaghVLYN3-107" vertex="1">
          <mxGeometry y="40" width="200" height="40" as="geometry" />
        </mxCell>
        <mxCell id="csLIRg7EKENoaghVLYN3-110" value="Company name" style="text;html=1;align=center;verticalAlign=middle;whiteSpace=wrap;rounded=0;" parent="csLIRg7EKENoaghVLYN3-107" vertex="1">
          <mxGeometry y="80" width="200" height="40" as="geometry" />
        </mxCell>
        <mxCell id="csLIRg7EKENoaghVLYN3-111" value="Mail" style="text;html=1;align=center;verticalAlign=middle;whiteSpace=wrap;rounded=0;" parent="csLIRg7EKENoaghVLYN3-107" vertex="1">
          <mxGeometry y="120" width="200" height="40" as="geometry" />
        </mxCell>
        <mxCell id="csLIRg7EKENoaghVLYN3-116" value="&lt;div style=&quot;text-align: start;&quot;&gt;&lt;span style=&quot;background-color: initial;&quot;&gt;ID_business account details&lt;/span&gt;&lt;/div&gt;" style="text;html=1;align=center;verticalAlign=middle;whiteSpace=wrap;rounded=0;" parent="csLIRg7EKENoaghVLYN3-107" vertex="1">
          <mxGeometry y="360" width="200" height="40" as="geometry" />
        </mxCell>
        <mxCell id="tyz_u_CxFQXvNKMrJdVT-14" style="edgeStyle=orthogonalEdgeStyle;rounded=0;orthogonalLoop=1;jettySize=auto;html=1;exitX=1;exitY=0.5;exitDx=0;exitDy=0;" parent="csLIRg7EKENoaghVLYN3-107" source="csLIRg7EKENoaghVLYN3-117" edge="1">
          <mxGeometry relative="1" as="geometry">
            <mxPoint x="200.5" y="340.5" as="targetPoint" />
          </mxGeometry>
        </mxCell>
        <mxCell id="csLIRg7EKENoaghVLYN3-117" value="ID_User con Company phiz.face" style="text;html=1;align=center;verticalAlign=middle;whiteSpace=wrap;rounded=0;" parent="csLIRg7EKENoaghVLYN3-107" vertex="1">
          <mxGeometry y="320" width="200" height="40" as="geometry" />
        </mxCell>
        <mxCell id="csLIRg7EKENoaghVLYN3-119" value="Web" style="text;html=1;align=center;verticalAlign=middle;whiteSpace=wrap;rounded=0;" parent="csLIRg7EKENoaghVLYN3-107" vertex="1">
          <mxGeometry y="160" width="200" height="40" as="geometry" />
        </mxCell>
        <mxCell id="csLIRg7EKENoaghVLYN3-120" value="ID_address" style="text;html=1;align=center;verticalAlign=middle;whiteSpace=wrap;rounded=0;" parent="csLIRg7EKENoaghVLYN3-107" vertex="1">
          <mxGeometry y="280" width="200" height="40" as="geometry" />
        </mxCell>
        <mxCell id="b094mv4lrQVxFqOp9tiN-1" value="&lt;div style=&quot;text-align: start;&quot;&gt;&lt;span style=&quot;background-color: initial;&quot;&gt;ID_rating&amp;nbsp;&lt;/span&gt;&lt;/div&gt;" style="text;html=1;align=center;verticalAlign=middle;whiteSpace=wrap;rounded=0;" parent="csLIRg7EKENoaghVLYN3-107" vertex="1">
          <mxGeometry y="240" width="200" height="40" as="geometry" />
        </mxCell>
        <mxCell id="tyz_u_CxFQXvNKMrJdVT-1" value="&lt;div style=&quot;text-align: start;&quot;&gt;&lt;span style=&quot;background-color: initial;&quot;&gt;ID_order&lt;/span&gt;&lt;/div&gt;" style="text;html=1;align=center;verticalAlign=middle;whiteSpace=wrap;rounded=0;" parent="csLIRg7EKENoaghVLYN3-107" vertex="1">
          <mxGeometry y="200" width="200" height="40" as="geometry" />
        </mxCell>
        <mxCell id="csLIRg7EKENoaghVLYN3-125" value="" style="swimlane;startSize=0;" parent="1" vertex="1">
          <mxGeometry x="1990" y="-580" width="200" height="160" as="geometry">
            <mxRectangle x="40" y="200" width="50" height="40" as="alternateBounds" />
          </mxGeometry>
        </mxCell>
        <mxCell id="csLIRg7EKENoaghVLYN3-126" value="Documents" style="text;html=1;align=center;verticalAlign=middle;whiteSpace=wrap;rounded=0;" parent="csLIRg7EKENoaghVLYN3-125" vertex="1">
          <mxGeometry x="60" width="80" height="30" as="geometry" />
        </mxCell>
        <mxCell id="csLIRg7EKENoaghVLYN3-127" value="ID" style="text;html=1;align=center;verticalAlign=middle;whiteSpace=wrap;rounded=0;" parent="csLIRg7EKENoaghVLYN3-125" vertex="1">
          <mxGeometry y="40" width="200" height="40" as="geometry" />
        </mxCell>
        <mxCell id="csLIRg7EKENoaghVLYN3-128" value="File" style="text;html=1;align=center;verticalAlign=middle;whiteSpace=wrap;rounded=0;" parent="csLIRg7EKENoaghVLYN3-125" vertex="1">
          <mxGeometry y="80" width="200" height="40" as="geometry" />
        </mxCell>
        <mxCell id="csLIRg7EKENoaghVLYN3-143" value="ID_typeDoc" style="text;html=1;align=center;verticalAlign=middle;whiteSpace=wrap;rounded=0;" parent="csLIRg7EKENoaghVLYN3-125" vertex="1">
          <mxGeometry y="120" width="200" height="40" as="geometry" />
        </mxCell>
        <mxCell id="csLIRg7EKENoaghVLYN3-135" value="" style="swimlane;startSize=0;" parent="1" vertex="1">
          <mxGeometry x="1710" y="-924" width="200" height="410" as="geometry">
            <mxRectangle x="40" y="200" width="50" height="40" as="alternateBounds" />
          </mxGeometry>
        </mxCell>
        <mxCell id="csLIRg7EKENoaghVLYN3-137" value="ID" style="text;html=1;align=center;verticalAlign=middle;whiteSpace=wrap;rounded=0;" parent="csLIRg7EKENoaghVLYN3-135" vertex="1">
          <mxGeometry y="50" width="200" height="40" as="geometry" />
        </mxCell>
        <mxCell id="csLIRg7EKENoaghVLYN3-139" value="Star Date time" style="text;html=1;align=center;verticalAlign=middle;whiteSpace=wrap;rounded=0;" parent="csLIRg7EKENoaghVLYN3-135" vertex="1">
          <mxGeometry y="130" width="200" height="40" as="geometry" />
        </mxCell>
        <mxCell id="csLIRg7EKENoaghVLYN3-140" value="Finish Date time" style="text;html=1;align=center;verticalAlign=middle;whiteSpace=wrap;rounded=0;" parent="csLIRg7EKENoaghVLYN3-135" vertex="1">
          <mxGeometry y="170" width="200" height="40" as="geometry" />
        </mxCell>
        <mxCell id="csLIRg7EKENoaghVLYN3-141" value="Order" style="text;html=1;align=center;verticalAlign=middle;whiteSpace=wrap;rounded=0;" parent="csLIRg7EKENoaghVLYN3-135" vertex="1">
          <mxGeometry width="200" height="40" as="geometry" />
        </mxCell>
        <mxCell id="csLIRg7EKENoaghVLYN3-142" value="NameIdOrder" style="text;html=1;align=center;verticalAlign=middle;whiteSpace=wrap;rounded=0;" parent="csLIRg7EKENoaghVLYN3-135" vertex="1">
          <mxGeometry y="90" width="200" height="40" as="geometry" />
        </mxCell>
        <mxCell id="csLIRg7EKENoaghVLYN3-145" value="ID_Company" style="text;html=1;align=center;verticalAlign=middle;whiteSpace=wrap;rounded=0;" parent="csLIRg7EKENoaghVLYN3-135" vertex="1">
          <mxGeometry y="240" width="200" height="40" as="geometry" />
        </mxCell>
        <mxCell id="xRr5vuv_WKvIwvED6xIB-14" value="ID_statusOrder" style="text;html=1;align=center;verticalAlign=middle;whiteSpace=wrap;rounded=0;" parent="csLIRg7EKENoaghVLYN3-135" vertex="1">
          <mxGeometry y="290" width="200" height="40" as="geometry" />
        </mxCell>
        <mxCell id="csLIRg7EKENoaghVLYN3-144" value="ID_Documents" style="text;html=1;align=center;verticalAlign=middle;whiteSpace=wrap;rounded=0;" parent="csLIRg7EKENoaghVLYN3-135" vertex="1">
          <mxGeometry y="370" width="200" height="40" as="geometry" />
        </mxCell>
        <mxCell id="tyz_u_CxFQXvNKMrJdVT-25" value="ID_Material type&lt;span style=&quot;color: rgba(0, 0, 0, 0); font-family: monospace; font-size: 0px; text-align: start; text-wrap: nowrap;&quot;&gt;%3CmxGraphModel%3E%3Croot%3E%3CmxCell%20id%3D%220%22%2F%3E%3CmxCell%20id%3D%221%22%20parent%3D%220%22%2F%3E%3CmxCell%20id%3D%222%22%20value%3D%22ID%22%20style%3D%22text%3Bhtml%3D1%3Balign%3Dcenter%3BverticalAlign%3Dmiddle%3BwhiteSpace%3Dwrap%3Brounded%3D0%3B%22%20vertex%3D%221%22%20parent%3D%221%22%3E%3CmxGeometry%20x%3D%22260%22%20y%3D%22-870%22%20width%3D%22200%22%20height%3D%2240%22%20as%3D%22geometry%22%2F%3E%3C%2FmxCell%3E%3C%2Froot%3E%3C%2FmxGraphModel%3E&lt;/span&gt;" style="text;html=1;align=center;verticalAlign=middle;whiteSpace=wrap;rounded=0;" parent="csLIRg7EKENoaghVLYN3-135" vertex="1">
          <mxGeometry y="330" width="200" height="40" as="geometry" />
        </mxCell>
        <mxCell id="tyz_u_CxFQXvNKMrJdVT-27" value="Quantity" style="text;html=1;align=center;verticalAlign=middle;whiteSpace=wrap;rounded=0;" parent="csLIRg7EKENoaghVLYN3-135" vertex="1">
          <mxGeometry y="210" width="200" height="40" as="geometry" />
        </mxCell>
        <mxCell id="csLIRg7EKENoaghVLYN3-148" value="" style="swimlane;startSize=0;" parent="1" vertex="1">
          <mxGeometry x="1450" y="-644" width="200" height="240" as="geometry">
            <mxRectangle x="40" y="200" width="50" height="40" as="alternateBounds" />
          </mxGeometry>
        </mxCell>
        <mxCell id="csLIRg7EKENoaghVLYN3-149" value="User connected Company phiz.face" style="text;html=1;align=center;verticalAlign=middle;whiteSpace=wrap;rounded=0;" parent="csLIRg7EKENoaghVLYN3-148" vertex="1">
          <mxGeometry x="40" width="140" height="40" as="geometry" />
        </mxCell>
        <mxCell id="csLIRg7EKENoaghVLYN3-150" value="ID" style="text;html=1;align=center;verticalAlign=middle;whiteSpace=wrap;rounded=0;" parent="csLIRg7EKENoaghVLYN3-148" vertex="1">
          <mxGeometry y="40" width="200" height="40" as="geometry" />
        </mxCell>
        <mxCell id="csLIRg7EKENoaghVLYN3-152" value="Telephone num" style="text;html=1;align=center;verticalAlign=middle;whiteSpace=wrap;rounded=0;" parent="csLIRg7EKENoaghVLYN3-148" vertex="1">
          <mxGeometry y="120" width="200" height="40" as="geometry" />
        </mxCell>
        <mxCell id="csLIRg7EKENoaghVLYN3-155" value="Full name" style="text;html=1;align=center;verticalAlign=middle;whiteSpace=wrap;rounded=0;" parent="csLIRg7EKENoaghVLYN3-148" vertex="1">
          <mxGeometry y="80" width="200" height="40" as="geometry" />
        </mxCell>
        <mxCell id="ru_o6e3Y8pDWjpEOkh-R-31" value="Email" style="text;html=1;align=center;verticalAlign=middle;whiteSpace=wrap;rounded=0;" parent="csLIRg7EKENoaghVLYN3-148" vertex="1">
          <mxGeometry y="160" width="200" height="40" as="geometry" />
        </mxCell>
        <mxCell id="ru_o6e3Y8pDWjpEOkh-R-32" value="Password" style="text;html=1;align=center;verticalAlign=middle;whiteSpace=wrap;rounded=0;" parent="csLIRg7EKENoaghVLYN3-148" vertex="1">
          <mxGeometry y="200" width="200" height="40" as="geometry" />
        </mxCell>
        <mxCell id="csLIRg7EKENoaghVLYN3-159" value="" style="swimlane;startSize=0;" parent="1" vertex="1">
          <mxGeometry x="1397" y="-1154" width="200" height="120" as="geometry">
            <mxRectangle x="40" y="200" width="50" height="40" as="alternateBounds" />
          </mxGeometry>
        </mxCell>
        <mxCell id="csLIRg7EKENoaghVLYN3-160" value="Role" style="text;html=1;align=center;verticalAlign=middle;whiteSpace=wrap;rounded=0;" parent="csLIRg7EKENoaghVLYN3-159" vertex="1">
          <mxGeometry x="60" width="80" height="30" as="geometry" />
        </mxCell>
        <mxCell id="csLIRg7EKENoaghVLYN3-161" value="ID" style="text;html=1;align=center;verticalAlign=middle;whiteSpace=wrap;rounded=0;" parent="csLIRg7EKENoaghVLYN3-159" vertex="1">
          <mxGeometry y="40" width="200" height="40" as="geometry" />
        </mxCell>
        <mxCell id="csLIRg7EKENoaghVLYN3-162" value="Name" style="text;html=1;align=center;verticalAlign=middle;whiteSpace=wrap;rounded=0;" parent="csLIRg7EKENoaghVLYN3-159" vertex="1">
          <mxGeometry y="80" width="200" height="40" as="geometry" />
        </mxCell>
        <mxCell id="csLIRg7EKENoaghVLYN3-165" value="" style="swimlane;startSize=0;" parent="1" vertex="1">
          <mxGeometry x="1480" y="-2260" width="200" height="120" as="geometry">
            <mxRectangle x="40" y="200" width="50" height="40" as="alternateBounds" />
          </mxGeometry>
        </mxCell>
        <mxCell id="csLIRg7EKENoaghVLYN3-166" value="Pnandomat" style="text;html=1;align=center;verticalAlign=middle;whiteSpace=wrap;rounded=0;" parent="csLIRg7EKENoaghVLYN3-165" vertex="1">
          <mxGeometry x="60" width="80" height="30" as="geometry" />
        </mxCell>
        <mxCell id="csLIRg7EKENoaghVLYN3-167" value="ID" style="text;html=1;align=center;verticalAlign=middle;whiteSpace=wrap;rounded=0;" parent="csLIRg7EKENoaghVLYN3-165" vertex="1">
          <mxGeometry y="40" width="200" height="40" as="geometry" />
        </mxCell>
        <mxCell id="h2uy1tZPQLhtZi0CYQHW-5" value="ID_resource" style="text;html=1;align=center;verticalAlign=middle;whiteSpace=wrap;rounded=0;" parent="csLIRg7EKENoaghVLYN3-165" vertex="1">
          <mxGeometry y="80" width="200" height="40" as="geometry" />
        </mxCell>
        <mxCell id="h2uy1tZPQLhtZi0CYQHW-12" value="" style="swimlane;startSize=0;" parent="1" vertex="1">
          <mxGeometry x="1130" y="-2270" width="200" height="160" as="geometry">
            <mxRectangle x="40" y="200" width="50" height="40" as="alternateBounds" />
          </mxGeometry>
        </mxCell>
        <mxCell id="h2uy1tZPQLhtZi0CYQHW-13" value="Resource" style="text;html=1;align=center;verticalAlign=middle;whiteSpace=wrap;rounded=0;" parent="h2uy1tZPQLhtZi0CYQHW-12" vertex="1">
          <mxGeometry x="60" width="80" height="30" as="geometry" />
        </mxCell>
        <mxCell id="h2uy1tZPQLhtZi0CYQHW-14" value="ID" style="text;html=1;align=center;verticalAlign=middle;whiteSpace=wrap;rounded=0;" parent="h2uy1tZPQLhtZi0CYQHW-12" vertex="1">
          <mxGeometry y="40" width="200" height="40" as="geometry" />
        </mxCell>
        <mxCell id="h2uy1tZPQLhtZi0CYQHW-19" value="Volum" style="text;html=1;align=center;verticalAlign=middle;whiteSpace=wrap;rounded=0;" parent="h2uy1tZPQLhtZi0CYQHW-12" vertex="1">
          <mxGeometry y="80" width="200" height="40" as="geometry" />
        </mxCell>
        <mxCell id="h2uy1tZPQLhtZi0CYQHW-28" value="ID_Type.res&amp;nbsp;" style="text;html=1;align=center;verticalAlign=middle;whiteSpace=wrap;rounded=0;" parent="h2uy1tZPQLhtZi0CYQHW-12" vertex="1">
          <mxGeometry y="120" width="200" height="40" as="geometry" />
        </mxCell>
        <mxCell id="h2uy1tZPQLhtZi0CYQHW-20" value="" style="swimlane;startSize=0;" parent="1" vertex="1">
          <mxGeometry x="1130" y="-2070" width="200" height="120" as="geometry">
            <mxRectangle x="40" y="200" width="50" height="40" as="alternateBounds" />
          </mxGeometry>
        </mxCell>
        <mxCell id="h2uy1tZPQLhtZi0CYQHW-21" value="Type Resource" style="text;html=1;align=center;verticalAlign=middle;whiteSpace=wrap;rounded=0;" parent="h2uy1tZPQLhtZi0CYQHW-20" vertex="1">
          <mxGeometry x="60" width="80" height="30" as="geometry" />
        </mxCell>
        <mxCell id="h2uy1tZPQLhtZi0CYQHW-22" value="ID" style="text;html=1;align=center;verticalAlign=middle;whiteSpace=wrap;rounded=0;" parent="h2uy1tZPQLhtZi0CYQHW-20" vertex="1">
          <mxGeometry y="40" width="200" height="40" as="geometry" />
        </mxCell>
        <mxCell id="h2uy1tZPQLhtZi0CYQHW-25" value="Tittel" style="text;html=1;align=center;verticalAlign=middle;whiteSpace=wrap;rounded=0;" parent="h2uy1tZPQLhtZi0CYQHW-20" vertex="1">
          <mxGeometry y="80" width="200" height="40" as="geometry" />
        </mxCell>
        <mxCell id="h2uy1tZPQLhtZi0CYQHW-37" value="" style="swimlane;startSize=0;" parent="1" vertex="1">
          <mxGeometry x="1210" y="-1820" width="200" height="200" as="geometry">
            <mxRectangle x="40" y="200" width="50" height="40" as="alternateBounds" />
          </mxGeometry>
        </mxCell>
        <mxCell id="h2uy1tZPQLhtZi0CYQHW-38" value="ID_ history session" style="text;html=1;align=center;verticalAlign=middle;whiteSpace=wrap;rounded=0;" parent="h2uy1tZPQLhtZi0CYQHW-37" vertex="1">
          <mxGeometry x="60" width="80" height="30" as="geometry" />
        </mxCell>
        <mxCell id="h2uy1tZPQLhtZi0CYQHW-39" value="ID" style="text;html=1;align=center;verticalAlign=middle;whiteSpace=wrap;rounded=0;" parent="h2uy1tZPQLhtZi0CYQHW-37" vertex="1">
          <mxGeometry y="40" width="200" height="40" as="geometry" />
        </mxCell>
        <mxCell id="h2uy1tZPQLhtZi0CYQHW-43" value="ID_resource" style="text;html=1;align=center;verticalAlign=middle;whiteSpace=wrap;rounded=0;" parent="h2uy1tZPQLhtZi0CYQHW-37" vertex="1">
          <mxGeometry y="160" width="200" height="40" as="geometry" />
        </mxCell>
        <mxCell id="h2uy1tZPQLhtZi0CYQHW-58" value="Date start" style="text;html=1;align=center;verticalAlign=middle;whiteSpace=wrap;rounded=0;" parent="h2uy1tZPQLhtZi0CYQHW-37" vertex="1">
          <mxGeometry y="80" width="200" height="40" as="geometry" />
        </mxCell>
        <mxCell id="h2uy1tZPQLhtZi0CYQHW-59" value="Date finish" style="text;html=1;align=center;verticalAlign=middle;whiteSpace=wrap;rounded=0;" parent="h2uy1tZPQLhtZi0CYQHW-37" vertex="1">
          <mxGeometry y="120" width="200" height="40" as="geometry" />
        </mxCell>
        <mxCell id="h2uy1tZPQLhtZi0CYQHW-46" style="edgeStyle=orthogonalEdgeStyle;rounded=0;orthogonalLoop=1;jettySize=auto;html=1;entryX=1;entryY=0.5;entryDx=0;entryDy=0;exitX=1;exitY=0.5;exitDx=0;exitDy=0;" parent="1" source="h2uy1tZPQLhtZi0CYQHW-22" target="h2uy1tZPQLhtZi0CYQHW-28" edge="1">
          <mxGeometry relative="1" as="geometry">
            <Array as="points">
              <mxPoint x="1360" y="-2010" />
              <mxPoint x="1360" y="-2130" />
            </Array>
          </mxGeometry>
        </mxCell>
        <mxCell id="h2uy1tZPQLhtZi0CYQHW-48" style="edgeStyle=orthogonalEdgeStyle;rounded=0;orthogonalLoop=1;jettySize=auto;html=1;exitX=1;exitY=0.5;exitDx=0;exitDy=0;" parent="1" source="h2uy1tZPQLhtZi0CYQHW-14" target="h2uy1tZPQLhtZi0CYQHW-5" edge="1">
          <mxGeometry relative="1" as="geometry">
            <Array as="points">
              <mxPoint x="1410" y="-2210" />
              <mxPoint x="1410" y="-2160" />
            </Array>
          </mxGeometry>
        </mxCell>
        <mxCell id="h2uy1tZPQLhtZi0CYQHW-50" style="edgeStyle=orthogonalEdgeStyle;rounded=0;orthogonalLoop=1;jettySize=auto;html=1;exitX=1;exitY=0.5;exitDx=0;exitDy=0;entryX=0;entryY=0.5;entryDx=0;entryDy=0;" parent="1" source="csLIRg7EKENoaghVLYN3-167" target="csLIRg7EKENoaghVLYN3-93" edge="1">
          <mxGeometry relative="1" as="geometry" />
        </mxCell>
        <mxCell id="h2uy1tZPQLhtZi0CYQHW-57" style="edgeStyle=orthogonalEdgeStyle;rounded=0;orthogonalLoop=1;jettySize=auto;html=1;entryX=0;entryY=0.5;entryDx=0;entryDy=0;exitX=1;exitY=0.5;exitDx=0;exitDy=0;" parent="1" source="csLIRg7EKENoaghVLYN3-60" target="csLIRg7EKENoaghVLYN3-74" edge="1">
          <mxGeometry relative="1" as="geometry">
            <Array as="points">
              <mxPoint x="1730" y="-2020" />
              <mxPoint x="1730" y="-1620" />
            </Array>
          </mxGeometry>
        </mxCell>
        <mxCell id="h2uy1tZPQLhtZi0CYQHW-61" style="edgeStyle=orthogonalEdgeStyle;rounded=0;orthogonalLoop=1;jettySize=auto;html=1;entryX=0;entryY=0.5;entryDx=0;entryDy=0;" parent="1" source="h2uy1tZPQLhtZi0CYQHW-39" target="h2uy1tZPQLhtZi0CYQHW-30" edge="1">
          <mxGeometry relative="1" as="geometry">
            <Array as="points">
              <mxPoint x="1650" y="-1760" />
              <mxPoint x="1650" y="-1540" />
            </Array>
          </mxGeometry>
        </mxCell>
        <mxCell id="h2uy1tZPQLhtZi0CYQHW-63" style="edgeStyle=orthogonalEdgeStyle;rounded=0;orthogonalLoop=1;jettySize=auto;html=1;" parent="1" source="h2uy1tZPQLhtZi0CYQHW-14" target="h2uy1tZPQLhtZi0CYQHW-43" edge="1">
          <mxGeometry relative="1" as="geometry">
            <Array as="points">
              <mxPoint x="1090" y="-2210" />
              <mxPoint x="1090" y="-1639" />
            </Array>
          </mxGeometry>
        </mxCell>
        <mxCell id="h2uy1tZPQLhtZi0CYQHW-64" value="" style="swimlane;startSize=0;" parent="1" vertex="1">
          <mxGeometry x="1090" y="-1580" width="200" height="320" as="geometry">
            <mxRectangle x="40" y="200" width="50" height="40" as="alternateBounds" />
          </mxGeometry>
        </mxCell>
        <mxCell id="h2uy1tZPQLhtZi0CYQHW-65" value="Setting" style="text;html=1;align=center;verticalAlign=middle;whiteSpace=wrap;rounded=0;" parent="h2uy1tZPQLhtZi0CYQHW-64" vertex="1">
          <mxGeometry x="60" width="80" height="30" as="geometry" />
        </mxCell>
        <mxCell id="h2uy1tZPQLhtZi0CYQHW-66" value="ID" style="text;html=1;align=center;verticalAlign=middle;whiteSpace=wrap;rounded=0;" parent="h2uy1tZPQLhtZi0CYQHW-64" vertex="1">
          <mxGeometry y="40" width="200" height="40" as="geometry" />
        </mxCell>
        <mxCell id="h2uy1tZPQLhtZi0CYQHW-67" value="Nickname" style="text;html=1;align=center;verticalAlign=middle;whiteSpace=wrap;rounded=0;" parent="h2uy1tZPQLhtZi0CYQHW-64" vertex="1">
          <mxGeometry y="80" width="200" height="40" as="geometry" />
        </mxCell>
        <mxCell id="h2uy1tZPQLhtZi0CYQHW-68" value="Telephone num" style="text;html=1;align=center;verticalAlign=middle;whiteSpace=wrap;rounded=0;" parent="h2uy1tZPQLhtZi0CYQHW-64" vertex="1">
          <mxGeometry y="120" width="200" height="40" as="geometry" />
        </mxCell>
        <mxCell id="h2uy1tZPQLhtZi0CYQHW-78" value="GEO location" style="text;html=1;align=center;verticalAlign=middle;whiteSpace=wrap;rounded=0;" parent="h2uy1tZPQLhtZi0CYQHW-64" vertex="1">
          <mxGeometry y="160" width="200" height="40" as="geometry" />
        </mxCell>
        <mxCell id="h2uy1tZPQLhtZi0CYQHW-79" value="Account photo" style="text;html=1;align=center;verticalAlign=middle;whiteSpace=wrap;rounded=0;" parent="h2uy1tZPQLhtZi0CYQHW-64" vertex="1">
          <mxGeometry y="200" width="200" height="40" as="geometry" />
        </mxCell>
        <mxCell id="h2uy1tZPQLhtZi0CYQHW-81" value="Style apps" style="text;html=1;align=center;verticalAlign=middle;whiteSpace=wrap;rounded=0;" parent="h2uy1tZPQLhtZi0CYQHW-64" vertex="1">
          <mxGeometry y="240" width="200" height="40" as="geometry" />
        </mxCell>
        <mxCell id="ru_o6e3Y8pDWjpEOkh-R-34" value="Password" style="text;html=1;align=center;verticalAlign=middle;whiteSpace=wrap;rounded=0;" parent="h2uy1tZPQLhtZi0CYQHW-64" vertex="1">
          <mxGeometry y="280" width="200" height="40" as="geometry" />
        </mxCell>
        <mxCell id="h2uy1tZPQLhtZi0CYQHW-76" style="edgeStyle=orthogonalEdgeStyle;rounded=0;orthogonalLoop=1;jettySize=auto;html=1;entryX=0;entryY=0.5;entryDx=0;entryDy=0;" parent="1" source="csLIRg7EKENoaghVLYN3-87" target="csLIRg7EKENoaghVLYN3-39" edge="1">
          <mxGeometry relative="1" as="geometry">
            <Array as="points">
              <mxPoint x="1820" y="-1480" />
              <mxPoint x="1820" y="-1740" />
            </Array>
          </mxGeometry>
        </mxCell>
        <mxCell id="h2uy1tZPQLhtZi0CYQHW-82" style="edgeStyle=orthogonalEdgeStyle;rounded=0;orthogonalLoop=1;jettySize=auto;html=1;entryX=0;entryY=0.5;entryDx=0;entryDy=0;exitX=1;exitY=0.25;exitDx=0;exitDy=0;" parent="1" source="h2uy1tZPQLhtZi0CYQHW-66" target="csLIRg7EKENoaghVLYN3-75" edge="1">
          <mxGeometry relative="1" as="geometry">
            <mxPoint x="1770" y="-1369.9714285714285" as="sourcePoint" />
            <mxPoint x="1810" y="-1850" as="targetPoint" />
            <Array as="points">
              <mxPoint x="1290" y="-1490" />
              <mxPoint x="1340" y="-1490" />
              <mxPoint x="1340" y="-1260" />
              <mxPoint x="1860" y="-1260" />
              <mxPoint x="1860" y="-1780" />
            </Array>
          </mxGeometry>
        </mxCell>
        <mxCell id="b094mv4lrQVxFqOp9tiN-2" value="" style="swimlane;startSize=0;" parent="1" vertex="1">
          <mxGeometry x="840" y="-854" width="200" height="160" as="geometry">
            <mxRectangle x="40" y="200" width="50" height="40" as="alternateBounds" />
          </mxGeometry>
        </mxCell>
        <mxCell id="b094mv4lrQVxFqOp9tiN-3" value="ID" style="text;html=1;align=center;verticalAlign=middle;whiteSpace=wrap;rounded=0;" parent="b094mv4lrQVxFqOp9tiN-2" vertex="1">
          <mxGeometry y="40" width="200" height="40" as="geometry" />
        </mxCell>
        <mxCell id="b094mv4lrQVxFqOp9tiN-6" value="Rating company" style="text;html=1;align=center;verticalAlign=middle;whiteSpace=wrap;rounded=0;" parent="b094mv4lrQVxFqOp9tiN-2" vertex="1">
          <mxGeometry width="200" height="40" as="geometry" />
        </mxCell>
        <mxCell id="ru_o6e3Y8pDWjpEOkh-R-3" value="Quantity" style="text;html=1;align=center;verticalAlign=middle;whiteSpace=wrap;rounded=0;" parent="b094mv4lrQVxFqOp9tiN-2" vertex="1">
          <mxGeometry y="80" width="200" height="40" as="geometry" />
        </mxCell>
        <mxCell id="ru_o6e3Y8pDWjpEOkh-R-7" style="edgeStyle=orthogonalEdgeStyle;rounded=0;orthogonalLoop=1;jettySize=auto;html=1;exitX=0;exitY=0.5;exitDx=0;exitDy=0;entryX=1;entryY=0.5;entryDx=0;entryDy=0;" parent="1" source="csLIRg7EKENoaghVLYN3-161" target="csLIRg7EKENoaghVLYN3-98" edge="1">
          <mxGeometry relative="1" as="geometry" />
        </mxCell>
        <mxCell id="ru_o6e3Y8pDWjpEOkh-R-24" value="" style="swimlane;startSize=0;" parent="1" vertex="1">
          <mxGeometry x="2230" y="-320" width="200" height="120" as="geometry">
            <mxRectangle x="40" y="200" width="50" height="40" as="alternateBounds" />
          </mxGeometry>
        </mxCell>
        <mxCell id="ru_o6e3Y8pDWjpEOkh-R-25" value="Type documents" style="text;html=1;align=center;verticalAlign=middle;whiteSpace=wrap;rounded=0;" parent="ru_o6e3Y8pDWjpEOkh-R-24" vertex="1">
          <mxGeometry x="50" width="100" height="30" as="geometry" />
        </mxCell>
        <mxCell id="ru_o6e3Y8pDWjpEOkh-R-26" value="ID" style="text;html=1;align=center;verticalAlign=middle;whiteSpace=wrap;rounded=0;" parent="ru_o6e3Y8pDWjpEOkh-R-24" vertex="1">
          <mxGeometry y="40" width="200" height="40" as="geometry" />
        </mxCell>
        <mxCell id="ru_o6e3Y8pDWjpEOkh-R-27" value="Name" style="text;html=1;align=center;verticalAlign=middle;whiteSpace=wrap;rounded=0;" parent="ru_o6e3Y8pDWjpEOkh-R-24" vertex="1">
          <mxGeometry y="80" width="200" height="40" as="geometry" />
        </mxCell>
        <mxCell id="ru_o6e3Y8pDWjpEOkh-R-28" style="edgeStyle=orthogonalEdgeStyle;rounded=0;orthogonalLoop=1;jettySize=auto;html=1;exitX=0;exitY=0.5;exitDx=0;exitDy=0;entryX=1;entryY=0.5;entryDx=0;entryDy=0;" parent="1" source="ru_o6e3Y8pDWjpEOkh-R-26" target="csLIRg7EKENoaghVLYN3-143" edge="1">
          <mxGeometry relative="1" as="geometry" />
        </mxCell>
        <mxCell id="xRr5vuv_WKvIwvED6xIB-1" value="" style="swimlane;startSize=0;" parent="1" vertex="1">
          <mxGeometry x="1440" y="-374" width="200" height="360" as="geometry">
            <mxRectangle x="40" y="200" width="50" height="40" as="alternateBounds" />
          </mxGeometry>
        </mxCell>
        <mxCell id="xRr5vuv_WKvIwvED6xIB-2" value="&lt;span style=&quot;text-align: start;&quot;&gt;Business account details&lt;/span&gt;" style="text;html=1;align=center;verticalAlign=middle;whiteSpace=wrap;rounded=0;" parent="xRr5vuv_WKvIwvED6xIB-1" vertex="1">
          <mxGeometry x="40" width="140" height="40" as="geometry" />
        </mxCell>
        <mxCell id="xRr5vuv_WKvIwvED6xIB-3" value="ID" style="text;html=1;align=center;verticalAlign=middle;whiteSpace=wrap;rounded=0;" parent="xRr5vuv_WKvIwvED6xIB-1" vertex="1">
          <mxGeometry y="40" width="200" height="40" as="geometry" />
        </mxCell>
        <mxCell id="xRr5vuv_WKvIwvED6xIB-4" value="KPP" style="text;html=1;align=center;verticalAlign=middle;whiteSpace=wrap;rounded=0;" parent="xRr5vuv_WKvIwvED6xIB-1" vertex="1">
          <mxGeometry y="120" width="200" height="40" as="geometry" />
        </mxCell>
        <mxCell id="xRr5vuv_WKvIwvED6xIB-5" value="P/S" style="text;html=1;align=center;verticalAlign=middle;whiteSpace=wrap;rounded=0;" parent="xRr5vuv_WKvIwvED6xIB-1" vertex="1">
          <mxGeometry y="320" width="200" height="40" as="geometry" />
        </mxCell>
        <mxCell id="xRr5vuv_WKvIwvED6xIB-7" value="Name bank" style="text;html=1;align=center;verticalAlign=middle;whiteSpace=wrap;rounded=0;" parent="xRr5vuv_WKvIwvED6xIB-1" vertex="1">
          <mxGeometry y="80" width="200" height="40" as="geometry" />
        </mxCell>
        <mxCell id="xRr5vuv_WKvIwvED6xIB-8" value="OKPO" style="text;html=1;align=center;verticalAlign=middle;whiteSpace=wrap;rounded=0;" parent="xRr5vuv_WKvIwvED6xIB-1" vertex="1">
          <mxGeometry y="280" width="200" height="40" as="geometry" />
        </mxCell>
        <mxCell id="xRr5vuv_WKvIwvED6xIB-9" value="L/S" style="text;html=1;align=center;verticalAlign=middle;whiteSpace=wrap;rounded=0;" parent="xRr5vuv_WKvIwvED6xIB-1" vertex="1">
          <mxGeometry y="240" width="200" height="40" as="geometry" />
        </mxCell>
        <mxCell id="xRr5vuv_WKvIwvED6xIB-10" value="INN" style="text;html=1;align=center;verticalAlign=middle;whiteSpace=wrap;rounded=0;" parent="xRr5vuv_WKvIwvED6xIB-1" vertex="1">
          <mxGeometry y="160" width="200" height="40" as="geometry" />
        </mxCell>
        <mxCell id="xRr5vuv_WKvIwvED6xIB-11" value="BIK" style="text;html=1;align=center;verticalAlign=middle;whiteSpace=wrap;rounded=0;" parent="xRr5vuv_WKvIwvED6xIB-1" vertex="1">
          <mxGeometry y="200" width="200" height="40" as="geometry" />
        </mxCell>
        <mxCell id="xRr5vuv_WKvIwvED6xIB-13" style="edgeStyle=orthogonalEdgeStyle;rounded=0;orthogonalLoop=1;jettySize=auto;html=1;exitX=0;exitY=0.5;exitDx=0;exitDy=0;entryX=1;entryY=0.5;entryDx=0;entryDy=0;" parent="1" source="xRr5vuv_WKvIwvED6xIB-3" target="csLIRg7EKENoaghVLYN3-116" edge="1">
          <mxGeometry relative="1" as="geometry">
            <Array as="points">
              <mxPoint x="1370" y="-314" />
              <mxPoint x="1370" y="-414" />
            </Array>
          </mxGeometry>
        </mxCell>
        <mxCell id="xRr5vuv_WKvIwvED6xIB-15" value="" style="swimlane;startSize=0;" parent="1" vertex="1">
          <mxGeometry x="1990" y="-740" width="200" height="120" as="geometry">
            <mxRectangle x="40" y="200" width="50" height="40" as="alternateBounds" />
          </mxGeometry>
        </mxCell>
        <mxCell id="xRr5vuv_WKvIwvED6xIB-16" value="Status order" style="text;html=1;align=center;verticalAlign=middle;whiteSpace=wrap;rounded=0;" parent="xRr5vuv_WKvIwvED6xIB-15" vertex="1">
          <mxGeometry x="50" width="100" height="30" as="geometry" />
        </mxCell>
        <mxCell id="xRr5vuv_WKvIwvED6xIB-17" value="ID" style="text;html=1;align=center;verticalAlign=middle;whiteSpace=wrap;rounded=0;" parent="xRr5vuv_WKvIwvED6xIB-15" vertex="1">
          <mxGeometry y="40" width="200" height="40" as="geometry" />
        </mxCell>
        <mxCell id="xRr5vuv_WKvIwvED6xIB-18" value="Name" style="text;html=1;align=center;verticalAlign=middle;whiteSpace=wrap;rounded=0;" parent="xRr5vuv_WKvIwvED6xIB-15" vertex="1">
          <mxGeometry y="80" width="200" height="40" as="geometry" />
        </mxCell>
        <mxCell id="tyz_u_CxFQXvNKMrJdVT-2" style="edgeStyle=orthogonalEdgeStyle;rounded=0;orthogonalLoop=1;jettySize=auto;html=1;entryX=0.996;entryY=0.571;entryDx=0;entryDy=0;entryPerimeter=0;" parent="1" source="csLIRg7EKENoaghVLYN3-137" target="csLIRg7EKENoaghVLYN3-107" edge="1">
          <mxGeometry relative="1" as="geometry">
            <Array as="points">
              <mxPoint x="1360" y="-854" />
              <mxPoint x="1360" y="-566" />
            </Array>
          </mxGeometry>
        </mxCell>
        <mxCell id="tyz_u_CxFQXvNKMrJdVT-3" style="edgeStyle=orthogonalEdgeStyle;rounded=0;orthogonalLoop=1;jettySize=auto;html=1;entryX=0;entryY=0.5;entryDx=0;entryDy=0;" parent="1" source="b094mv4lrQVxFqOp9tiN-3" target="b094mv4lrQVxFqOp9tiN-1" edge="1">
          <mxGeometry relative="1" as="geometry" />
        </mxCell>
        <mxCell id="tyz_u_CxFQXvNKMrJdVT-4" value="" style="swimlane;startSize=0;" parent="1" vertex="1">
          <mxGeometry x="2010" y="-1120" width="200" height="220" as="geometry">
            <mxRectangle x="40" y="200" width="50" height="40" as="alternateBounds" />
          </mxGeometry>
        </mxCell>
        <mxCell id="tyz_u_CxFQXvNKMrJdVT-5" value="Store" style="text;html=1;align=center;verticalAlign=middle;whiteSpace=wrap;rounded=0;" parent="tyz_u_CxFQXvNKMrJdVT-4" vertex="1">
          <mxGeometry x="60" width="80" height="30" as="geometry" />
        </mxCell>
        <mxCell id="tyz_u_CxFQXvNKMrJdVT-6" value="ID" style="text;html=1;align=center;verticalAlign=middle;whiteSpace=wrap;rounded=0;" parent="tyz_u_CxFQXvNKMrJdVT-4" vertex="1">
          <mxGeometry y="40" width="200" height="40" as="geometry" />
        </mxCell>
        <mxCell id="tyz_u_CxFQXvNKMrJdVT-11" value="ID_resource" style="text;html=1;align=center;verticalAlign=middle;whiteSpace=wrap;rounded=0;" parent="tyz_u_CxFQXvNKMrJdVT-4" vertex="1">
          <mxGeometry y="180" width="200" height="40" as="geometry" />
        </mxCell>
        <mxCell id="tyz_u_CxFQXvNKMrJdVT-13" value="ID_Order&amp;nbsp;" style="text;html=1;align=center;verticalAlign=middle;whiteSpace=wrap;rounded=0;" parent="tyz_u_CxFQXvNKMrJdVT-4" vertex="1">
          <mxGeometry y="140" width="200" height="40" as="geometry" />
        </mxCell>
        <mxCell id="tyz_u_CxFQXvNKMrJdVT-17" value="&lt;span style=&quot;color: rgba(0, 0, 0, 0); font-family: monospace; font-size: 0px; text-align: start; text-wrap: nowrap;&quot;&gt;%3CmxGraphModel%3E%3Croot%3E%3CmxCell%20id%3D%220%22%2F%3E%3CmxCell%20id%3D%221%22%20parent%3D%220%22%2F%3E%3CmxCell%20id%3D%222%22%20value%3D%22Quantity%22%20style%3D%22text%3Bhtml%3D1%3Balign%3Dcenter%3BverticalAlign%3Dmiddle%3BwhiteSpace%3Dwrap%3Brounded%3D0%3B%22%20vertex%3D%221%22%20parent%3D%221%22%3E%3CmxGeometry%20x%3D%22550%22%20y%3D%22-1020%22%20width%3D%22200%22%20height%3D%2240%22%20as%3D%22geometry%22%2F%3E%3C%2FmxCell%3E%3C%2Froot%3E%3C%2FmxGraphModel%3E&lt;/span&gt;" style="text;html=1;align=center;verticalAlign=middle;whiteSpace=wrap;rounded=0;" parent="tyz_u_CxFQXvNKMrJdVT-4" vertex="1">
          <mxGeometry y="90" width="200" height="40" as="geometry" />
        </mxCell>
        <mxCell id="tyz_u_CxFQXvNKMrJdVT-18" value="Quantity" style="text;html=1;align=center;verticalAlign=middle;whiteSpace=wrap;rounded=0;" parent="tyz_u_CxFQXvNKMrJdVT-4" vertex="1">
          <mxGeometry y="90" width="200" height="40" as="geometry" />
        </mxCell>
        <mxCell id="tyz_u_CxFQXvNKMrJdVT-15" style="edgeStyle=orthogonalEdgeStyle;rounded=0;orthogonalLoop=1;jettySize=auto;html=1;exitX=0;exitY=0.5;exitDx=0;exitDy=0;entryX=1;entryY=0.5;entryDx=0;entryDy=0;" parent="1" source="csLIRg7EKENoaghVLYN3-150" target="csLIRg7EKENoaghVLYN3-117" edge="1">
          <mxGeometry relative="1" as="geometry" />
        </mxCell>
        <mxCell id="tyz_u_CxFQXvNKMrJdVT-16" style="edgeStyle=orthogonalEdgeStyle;rounded=0;orthogonalLoop=1;jettySize=auto;html=1;exitX=0;exitY=0.5;exitDx=0;exitDy=0;entryX=1;entryY=0.5;entryDx=0;entryDy=0;" parent="1" source="tyz_u_CxFQXvNKMrJdVT-13" target="csLIRg7EKENoaghVLYN3-137" edge="1">
          <mxGeometry relative="1" as="geometry" />
        </mxCell>
        <mxCell id="tyz_u_CxFQXvNKMrJdVT-20" style="edgeStyle=orthogonalEdgeStyle;rounded=0;orthogonalLoop=1;jettySize=auto;html=1;exitX=0;exitY=0.5;exitDx=0;exitDy=0;entryX=1;entryY=0.5;entryDx=0;entryDy=0;" parent="1" source="csLIRg7EKENoaghVLYN3-127" target="csLIRg7EKENoaghVLYN3-144" edge="1">
          <mxGeometry relative="1" as="geometry" />
        </mxCell>
        <mxCell id="tyz_u_CxFQXvNKMrJdVT-21" style="edgeStyle=orthogonalEdgeStyle;rounded=0;orthogonalLoop=1;jettySize=auto;html=1;exitX=0;exitY=0.5;exitDx=0;exitDy=0;entryX=1;entryY=0.5;entryDx=0;entryDy=0;" parent="1" source="xRr5vuv_WKvIwvED6xIB-17" target="xRr5vuv_WKvIwvED6xIB-14" edge="1">
          <mxGeometry relative="1" as="geometry" />
        </mxCell>
        <mxCell id="tyz_u_CxFQXvNKMrJdVT-22" style="edgeStyle=orthogonalEdgeStyle;rounded=0;orthogonalLoop=1;jettySize=auto;html=1;exitX=1;exitY=0.5;exitDx=0;exitDy=0;entryX=0;entryY=0.5;entryDx=0;entryDy=0;" parent="1" source="csLIRg7EKENoaghVLYN3-109" target="csLIRg7EKENoaghVLYN3-145" edge="1">
          <mxGeometry relative="1" as="geometry">
            <Array as="points">
              <mxPoint x="1520" y="-734" />
              <mxPoint x="1520" y="-704" />
              <mxPoint x="1690" y="-704" />
              <mxPoint x="1690" y="-664" />
            </Array>
          </mxGeometry>
        </mxCell>
        <mxCell id="8iAgz6GP0BhCK0G63EhW-3" value="" style="swimlane;startSize=0;" parent="1" vertex="1">
          <mxGeometry x="2200" y="-1440" width="200" height="160" as="geometry">
            <mxRectangle x="40" y="200" width="50" height="40" as="alternateBounds" />
          </mxGeometry>
        </mxCell>
        <mxCell id="8iAgz6GP0BhCK0G63EhW-4" value="Type Ayth" style="text;html=1;align=center;verticalAlign=middle;whiteSpace=wrap;rounded=0;" parent="8iAgz6GP0BhCK0G63EhW-3" vertex="1">
          <mxGeometry x="60" width="80" height="30" as="geometry" />
        </mxCell>
        <mxCell id="8iAgz6GP0BhCK0G63EhW-5" value="ID" style="text;html=1;align=center;verticalAlign=middle;whiteSpace=wrap;rounded=0;" parent="8iAgz6GP0BhCK0G63EhW-3" vertex="1">
          <mxGeometry y="40" width="200" height="40" as="geometry" />
        </mxCell>
        <mxCell id="8iAgz6GP0BhCK0G63EhW-7" value="String" style="text;html=1;align=center;verticalAlign=middle;whiteSpace=wrap;rounded=0;" parent="8iAgz6GP0BhCK0G63EhW-3" vertex="1">
          <mxGeometry y="120" width="200" height="40" as="geometry" />
        </mxCell>
        <mxCell id="8iAgz6GP0BhCK0G63EhW-18" value="Tittle" style="text;html=1;align=center;verticalAlign=middle;whiteSpace=wrap;rounded=0;" parent="8iAgz6GP0BhCK0G63EhW-3" vertex="1">
          <mxGeometry y="80" width="200" height="40" as="geometry" />
        </mxCell>
        <mxCell id="8iAgz6GP0BhCK0G63EhW-10" value="" style="swimlane;startSize=0;" parent="1" vertex="1">
          <mxGeometry x="2200" y="-1680" width="200" height="200" as="geometry">
            <mxRectangle x="40" y="200" width="50" height="40" as="alternateBounds" />
          </mxGeometry>
        </mxCell>
        <mxCell id="8iAgz6GP0BhCK0G63EhW-11" value="debit.card bank" style="text;html=1;align=center;verticalAlign=middle;whiteSpace=wrap;rounded=0;" parent="8iAgz6GP0BhCK0G63EhW-10" vertex="1">
          <mxGeometry x="60" width="80" height="30" as="geometry" />
        </mxCell>
        <mxCell id="8iAgz6GP0BhCK0G63EhW-12" value="ID" style="text;html=1;align=center;verticalAlign=middle;whiteSpace=wrap;rounded=0;" parent="8iAgz6GP0BhCK0G63EhW-10" vertex="1">
          <mxGeometry y="40" width="200" height="40" as="geometry" />
        </mxCell>
        <mxCell id="8iAgz6GP0BhCK0G63EhW-13" value="MobNum" style="text;html=1;align=center;verticalAlign=middle;whiteSpace=wrap;rounded=0;" parent="8iAgz6GP0BhCK0G63EhW-10" vertex="1">
          <mxGeometry y="80" width="200" height="40" as="geometry" />
        </mxCell>
        <mxCell id="8iAgz6GP0BhCK0G63EhW-14" value="Password" style="text;html=1;align=center;verticalAlign=middle;whiteSpace=wrap;rounded=0;" parent="8iAgz6GP0BhCK0G63EhW-10" vertex="1">
          <mxGeometry y="120" width="200" height="40" as="geometry" />
        </mxCell>
        <mxCell id="8iAgz6GP0BhCK0G63EhW-15" value="ID_typeAyth" style="text;html=1;align=center;verticalAlign=middle;whiteSpace=wrap;rounded=0;" parent="8iAgz6GP0BhCK0G63EhW-10" vertex="1">
          <mxGeometry y="160" width="200" height="40" as="geometry" />
        </mxCell>
        <mxCell id="8iAgz6GP0BhCK0G63EhW-16" style="edgeStyle=orthogonalEdgeStyle;rounded=0;orthogonalLoop=1;jettySize=auto;html=1;exitX=0;exitY=0.5;exitDx=0;exitDy=0;entryX=1;entryY=0.5;entryDx=0;entryDy=0;" parent="1" source="8iAgz6GP0BhCK0G63EhW-12" target="8iAgz6GP0BhCK0G63EhW-2" edge="1">
          <mxGeometry relative="1" as="geometry" />
        </mxCell>
        <mxCell id="8iAgz6GP0BhCK0G63EhW-17" style="edgeStyle=orthogonalEdgeStyle;rounded=0;orthogonalLoop=1;jettySize=auto;html=1;exitX=1;exitY=0.5;exitDx=0;exitDy=0;entryX=1;entryY=0.5;entryDx=0;entryDy=0;" parent="1" source="8iAgz6GP0BhCK0G63EhW-15" target="8iAgz6GP0BhCK0G63EhW-5" edge="1">
          <mxGeometry relative="1" as="geometry" />
        </mxCell>
        <mxCell id="RPT8Soz0qCMN14ooQWHy-1" style="edgeStyle=orthogonalEdgeStyle;rounded=0;orthogonalLoop=1;jettySize=auto;html=1;entryX=1;entryY=0.5;entryDx=0;entryDy=0;" edge="1" parent="1" source="h2uy1tZPQLhtZi0CYQHW-28" target="tyz_u_CxFQXvNKMrJdVT-11">
          <mxGeometry relative="1" as="geometry">
            <Array as="points">
              <mxPoint x="2460" y="-2130" />
              <mxPoint x="2460" y="-920" />
            </Array>
          </mxGeometry>
        </mxCell>
        <mxCell id="RPT8Soz0qCMN14ooQWHy-2" style="edgeStyle=orthogonalEdgeStyle;rounded=0;orthogonalLoop=1;jettySize=auto;html=1;exitX=0;exitY=0.25;exitDx=0;exitDy=0;entryX=1;entryY=0.5;entryDx=0;entryDy=0;" edge="1" parent="1" source="h2uy1tZPQLhtZi0CYQHW-14" target="tyz_u_CxFQXvNKMrJdVT-25">
          <mxGeometry relative="1" as="geometry">
            <mxPoint x="2273.6363728841147" y="-570" as="targetPoint" />
            <Array as="points">
              <mxPoint x="1030" y="-2220" />
              <mxPoint x="1030" y="-1210" />
              <mxPoint x="1940" y="-1210" />
              <mxPoint x="1940" y="-574" />
            </Array>
          </mxGeometry>
        </mxCell>
      </root>
    </mxGraphModel>
  </diagram>
</mxfile>
